<svg xmlns="http://www.w3.org/2000/svg" viewBox="0 0 19 19"><title>google</title><path d="M10,15.27A1.83,1.83,0,0,0,10,14.8c0-.14-.07-.28-.11-.41a1.45,1.45,0,0,0-.2-.39l-.24-.35a2,2,0,0,0-.3-.34L8.79,13l-.37-.29-.35-.26-.38-.26L7.34,12a4,4,0,0,0-.57,0A9.71,9.71,0,0,0,5.56,12a7.27,7.27,0,0,0-1.23.29,4.64,4.64,0,0,0-1.12.52,2.62,2.62,0,0,0-.79.86,2.56,2.56,0,0,0,.1,2.61,2.8,2.8,0,0,0,1.06,1A6.22,6.22,0,0,0,5,17.78,6.46,6.46,0,0,0,6.41,18a6,6,0,0,0,1.28-.14,4.59,4.59,0,0,0,1.15-.45,2.21,2.21,0,0,0,.85-.84A2.42,2.42,0,0,0,10,15.27ZM8.63,5.42A5.9,5.9,0,0,0,8.44,4a7.14,7.14,0,0,0-.53-1.49A3.3,3.3,0,0,0,7,1.29,2.21,2.21,0,0,0,5.58.82a1.92,1.92,0,0,0-1.64.79,3.07,3.07,0,0,0-.58,1.88,5,5,0,0,0,.13,1.13,6,6,0,0,0,.4,1.19,6.18,6.18,0,0,0,.64,1.07,3,3,0,0,0,.89.77A2.2,2.2,0,0,0,6.53,8a1.86,1.86,0,0,0,1.61-.69A3.11,3.11,0,0,0,8.63,5.42ZM7.14,0h5L10.58.9H9A3.41,3.41,0,0,1,10.3,2.34a4.36,4.36,0,0,1,.44,1.93,3.93,3.93,0,0,1-.26,1.5,3.29,3.29,0,0,1-.64,1.06c-.25.26-.5.51-.75.73a4.56,4.56,0,0,0-.64.7A1.26,1.26,0,0,0,8.19,9a1,1,0,0,0,.19.58,2.26,2.26,0,0,0,.49.55c.2.18.42.36.66.55s.49.4.74.63a6.78,6.78,0,0,1,.66.76,3.27,3.27,0,0,1,.49,1,3.7,3.7,0,0,1,.19,1.21A4.15,4.15,0,0,1,10,17.5,7.07,7.07,0,0,1,5.22,19a9.14,9.14,0,0,1-1.37-.11,7.44,7.44,0,0,1-1.39-.39,5.4,5.4,0,0,1-1.24-.66,3,3,0,0,1-.88-1A2.77,2.77,0,0,1,0,15.44,3.47,3.47,0,0,1,.42,13.9a3.58,3.58,0,0,1,1.1-1.27,5.77,5.77,0,0,1,1.65-.81,14.84,14.84,0,0,1,1.77-.41,14.09,14.09,0,0,1,1.72-.15,2.89,2.89,0,0,1-.73-1.7,1.23,1.23,0,0,1,0-.27A.64.64,0,0,1,6,9.07c0-.06,0-.15.09-.25s.06-.18.08-.24c-.31,0-.57.05-.8.05A4.14,4.14,0,0,1,2.46,7.51,3.65,3.65,0,0,1,1.24,4.7,4.32,4.32,0,0,1,2.33,1.84,4.77,4.77,0,0,1,5,.23,10.46,10.46,0,0,1,7.14,0ZM19,2.92V4.38H16.08V7.31H14.62V4.38H11.69V2.92h2.93V0h1.46V2.92Z"/></svg>