<svg xmlns="http://www.w3.org/2000/svg" viewBox="0 0 18 17.2"><title>linkedin</title><path d="M4.09,5.59V17.2H.22V5.59ZM4.34,2a1.86,1.86,0,0,1-.6,1.43A2.17,2.17,0,0,1,2.16,4h0A2.07,2.07,0,0,1,.59,3.43,1.92,1.92,0,0,1,0,2,1.89,1.89,0,0,1,.6.57,2.22,2.22,0,0,1,2.18,0,2.14,2.14,0,0,1,3.74.57,2,2,0,0,1,4.34,2ZM18,10.55V17.2H14.14V11a3.38,3.38,0,0,0-.47-1.93,1.68,1.68,0,0,0-1.48-.69,1.9,1.9,0,0,0-1.24.4,2.52,2.52,0,0,0-.74,1,2.75,2.75,0,0,0-.13,1V17.2H6.22q0-4.66,0-7.58c0-1.94,0-3.09,0-3.47V5.59h3.86V7.28h0a5.14,5.14,0,0,1,.49-.66A4.51,4.51,0,0,1,11.2,6a2.87,2.87,0,0,1,1-.51,4.67,4.67,0,0,1,1.34-.18,4.15,4.15,0,0,1,3.22,1.33A5.61,5.61,0,0,1,18,10.55Z"/></svg>