<svg xmlns="http://www.w3.org/2000/svg" viewBox="0 0 18 18"><title>pinterest</title><path d="M18,9a8.77,8.77,0,0,1-1.21,4.52,8.84,8.84,0,0,1-3.27,3.27A8.77,8.77,0,0,1,9,18a9.14,9.14,0,0,1-2.55-.37,7.27,7.27,0,0,0,.91-1.93c.07-.26.28-1.09.63-2.47a1.91,1.91,0,0,0,.86.79,2.8,2.8,0,0,0,1.33.34,4.18,4.18,0,0,0,2.53-.81,5.14,5.14,0,0,0,1.73-2.21,8,8,0,0,0,.61-3.16,4.88,4.88,0,0,0-.7-2.51,5.32,5.32,0,0,0-2-1.91,6.05,6.05,0,0,0-3-.74A7.75,7.75,0,0,0,7,3.36,5.89,5.89,0,0,0,4,5.56a5.26,5.26,0,0,0-.79,1.52,5,5,0,0,0-.25,1.57,4.56,4.56,0,0,0,.47,2.14,2.63,2.63,0,0,0,1.37,1.3c.23.1.38,0,.44-.23,0-.06,0-.18.1-.36s.08-.31.09-.36a.53.53,0,0,0-.13-.5,2.67,2.67,0,0,1-.6-1.77A4.27,4.27,0,0,1,9.09,4.56a3.8,3.8,0,0,1,2.76,1,3.32,3.32,0,0,1,1,2.5A6.63,6.63,0,0,1,12,11.4,2.36,2.36,0,0,1,10,12.8a1.43,1.43,0,0,1-1.14-.51,1.33,1.33,0,0,1-.27-1.23A11.28,11.28,0,0,1,8.88,10c.14-.46.26-.86.35-1.21a3.59,3.59,0,0,0,.13-.88,1.49,1.49,0,0,0-.31-1,1.09,1.09,0,0,0-.91-.38,1.51,1.51,0,0,0-1.23.66,2.74,2.74,0,0,0-.5,1.67,3.22,3.22,0,0,0,.29,1.43l-1.16,4.9a7.87,7.87,0,0,0-.15,2.07A9,9,0,0,1,1.49,14,8.77,8.77,0,0,1,0,9,8.77,8.77,0,0,1,1.21,4.48,8.84,8.84,0,0,1,4.48,1.21,8.77,8.77,0,0,1,9,0a8.77,8.77,0,0,1,4.52,1.21,8.84,8.84,0,0,1,3.27,3.27A8.77,8.77,0,0,1,18,9Z"/></svg>