<svg xmlns="http://www.w3.org/2000/svg" viewBox="0 0 19 19"><title>search</title><path d="M13.15,8a5,5,0,0,0-1.5-3.62A4.92,4.92,0,0,0,8,2.92a5,5,0,0,0-3.62,1.5A5,5,0,0,0,2.92,8a4.92,4.92,0,0,0,1.5,3.61A5,5,0,0,0,8,13.15a4.92,4.92,0,0,0,3.61-1.5A4.92,4.92,0,0,0,13.15,8ZM19,17.54A1.47,1.47,0,0,1,17.54,19a1.35,1.35,0,0,1-1-.43l-3.92-3.91A7.84,7.84,0,0,1,8,16.08a7.74,7.74,0,0,1-3.12-.64,7.92,7.92,0,0,1-2.57-1.71A8.22,8.22,0,0,1,.63,11.16a8,8,0,0,1,0-6.24A8,8,0,0,1,4.92.63a8,8,0,0,1,6.24,0,8.22,8.22,0,0,1,2.57,1.72,7.92,7.92,0,0,1,1.71,2.57A7.74,7.74,0,0,1,16.08,8a7.84,7.84,0,0,1-1.42,4.55l3.92,3.92A1.41,1.41,0,0,1,19,17.54Z"/></svg>