<svg xmlns="http://www.w3.org/2000/svg" viewBox="0 0 19 15.43"><title>twitter</title><path d="M19,1.83a8.32,8.32,0,0,1-1.95,2c0,.11,0,.28,0,.5a10.88,10.88,0,0,1-.46,3.13,11.31,11.31,0,0,1-1.39,3A11.71,11.71,0,0,1,13,13a9.59,9.59,0,0,1-3.11,1.76A11.31,11.31,0,0,1,6,15.43a10.78,10.78,0,0,1-6-1.75,6.75,6.75,0,0,0,.94.05,7.59,7.59,0,0,0,4.83-1.66,3.84,3.84,0,0,1-2.26-.78A3.79,3.79,0,0,1,2.13,9.37a5,5,0,0,0,.74.06,4.39,4.39,0,0,0,1-.13A3.86,3.86,0,0,1,1.66,8,3.77,3.77,0,0,1,.77,5.47v0a3.88,3.88,0,0,0,1.76.49A3.83,3.83,0,0,1,1.27,4.53,3.72,3.72,0,0,1,.8,2.68a3.76,3.76,0,0,1,.53-2A10.94,10.94,0,0,0,4.88,3.59a10.79,10.79,0,0,0,4.48,1.2,4.07,4.07,0,0,1-.1-.9A3.75,3.75,0,0,1,10.4,1.14a3.9,3.9,0,0,1,5.6.09A7.65,7.65,0,0,0,18.47.29a3.84,3.84,0,0,1-1.71,2.15A8.13,8.13,0,0,0,19,1.83Z"/></svg>