<svg xmlns="http://www.w3.org/2000/svg" viewBox="0 0 13 13"><title>arrow-circle-right</title><path d="M6.51,10.87a.49.49,0,0,0,.38-.16L10,7.65l.77-.77a.53.53,0,0,0,0-.76L10,5.35,6.89,2.29a.53.53,0,0,0-.76,0l-.77.77a.5.5,0,0,0-.15.38.52.52,0,0,0,.15.38L7,5.42H2.71a.49.49,0,0,0-.38.16A.49.49,0,0,0,2.17,6V7a.49.49,0,0,0,.16.38.49.49,0,0,0,.38.16H7l-1.6,1.6a.52.52,0,0,0-.16.38.49.49,0,0,0,.16.38l.77.77A.49.49,0,0,0,6.51,10.87ZM6.5,13a6.34,6.34,0,0,1-3.26-.87A6.42,6.42,0,0,1,.87,9.76,6.34,6.34,0,0,1,0,6.5,6.34,6.34,0,0,1,.87,3.24,6.42,6.42,0,0,1,3.24.87,6.34,6.34,0,0,1,6.5,0,6.34,6.34,0,0,1,9.76.87a6.42,6.42,0,0,1,2.37,2.37A6.34,6.34,0,0,1,13,6.5a6.34,6.34,0,0,1-.87,3.26,6.42,6.42,0,0,1-2.37,2.37A6.34,6.34,0,0,1,6.5,13Z"/></svg>