<svg xmlns="http://www.w3.org/2000/svg" viewBox="0 0 15 15"><title>phone</title><path d="M15,11.85a3.64,3.64,0,0,1-.11.75,4.07,4.07,0,0,1-.22.73,2.89,2.89,0,0,1-1.3,1.13,4.16,4.16,0,0,1-2,.54,3.43,3.43,0,0,1-.56,0,4.2,4.2,0,0,1-.61-.13l-.51-.15-.59-.22-.52-.2a9.24,9.24,0,0,1-1.87-.88,15.39,15.39,0,0,1-2.81-2.3,15.39,15.39,0,0,1-2.3-2.81A9.24,9.24,0,0,1,.74,6.4c0-.06-.09-.24-.2-.52S.36,5.4.32,5.29.23,5,.17,4.78A4.2,4.2,0,0,1,0,4.17a3.43,3.43,0,0,1,0-.56,4.16,4.16,0,0,1,.54-2A2.89,2.89,0,0,1,1.67.33,4.07,4.07,0,0,1,2.4.11,3.64,3.64,0,0,1,3.15,0a.67.67,0,0,1,.23,0c.12,0,.31.31.56.81.08.14.19.33.32.58l.37.67L5,2.66a2.77,2.77,0,0,1,.19.27,3,3,0,0,1,.23.38.66.66,0,0,1,.07.3.88.88,0,0,1-.3.53,4.64,4.64,0,0,1-.66.59,7.46,7.46,0,0,0-.66.56.84.84,0,0,0-.3.49A.57.57,0,0,0,3.58,6l.09.22a1.68,1.68,0,0,0,.15.26l.12.2A11,11,0,0,0,5.8,9.2a11,11,0,0,0,2.5,1.86l.2.12a1.68,1.68,0,0,0,.26.15l.22.09a.57.57,0,0,0,.24.05.84.84,0,0,0,.49-.3,7.46,7.46,0,0,0,.56-.66,4.64,4.64,0,0,1,.59-.66.88.88,0,0,1,.53-.3.66.66,0,0,1,.3.07,3,3,0,0,1,.38.23l.27.19.57.33.67.37.58.32c.5.25.77.44.81.56A.67.67,0,0,1,15,11.85Z"/></svg>